<svg xmlns="http://www.w3.org/2000/svg" xmlns:xlink="http://www.w3.org/1999/xlink" viewBox="0 0 408.85 267.61"><defs><style>.cls-1{fill:none;}.cls-2{fill:#fff;}.cls-3{fill:#f9b215;}.cls-4{fill:#064a79;}.cls-5{fill:#2e72b8;}.cls-6{clip-path:url(#clip-path);}</style><clipPath id="clip-path"><path class="cls-1" d="M171.67,18.15,222,104.63l50.3-86.48Z"/></clipPath></defs><g id="Слой_2" data-name="Слой 2"><g id="Слой_1-2" data-name="Слой 1"><path class="cls-2" d="M8.72,257.91a5.83,5.83,0,0,0,1.82,2,8.1,8.1,0,0,0,2.67,1.16,13.29,13.29,0,0,0,3.17.38,16.94,16.94,0,0,0,2.38-.18,8.49,8.49,0,0,0,2.38-.68A5.14,5.14,0,0,0,23,259.25a3.41,3.41,0,0,0,.74-2.25,3.09,3.09,0,0,0-1-2.37,7.79,7.79,0,0,0-2.56-1.52,28.34,28.34,0,0,0-3.6-1.06c-1.33-.3-2.69-.64-4.06-1A37.87,37.87,0,0,1,8.4,249.8a13.93,13.93,0,0,1-3.59-1.89A8.86,8.86,0,0,1,2.25,245a8.38,8.38,0,0,1-1-4.21A9.11,9.11,0,0,1,2.51,236a11,11,0,0,1,3.25-3.41,14.45,14.45,0,0,1,4.55-2,20.05,20.05,0,0,1,5.07-.66,25.68,25.68,0,0,1,5.68.63,14.83,14.83,0,0,1,4.84,2.05,10.15,10.15,0,0,1,4.59,8.94h-8a6.24,6.24,0,0,0-.71-2.68,4.66,4.66,0,0,0-1.61-1.66,7,7,0,0,0-2.3-.86A14.75,14.75,0,0,0,15,236a9.79,9.79,0,0,0-2,.2,5.28,5.28,0,0,0-1.82.71,4.29,4.29,0,0,0-1.35,1.26,3.3,3.3,0,0,0-.53,1.92,3.07,3.07,0,0,0,.43,1.72,3.77,3.77,0,0,0,1.66,1.21,21.84,21.84,0,0,0,3.44,1.11l5.73,1.42c.7.13,1.68.38,2.93.73A14.51,14.51,0,0,1,27.22,248a11.09,11.09,0,0,1,3.19,3.11,8.5,8.5,0,0,1,1.35,5,10.57,10.57,0,0,1-1,4.6,10.06,10.06,0,0,1-3,3.66,14.52,14.52,0,0,1-4.91,2.4,24,24,0,0,1-6.79.86,24.75,24.75,0,0,1-6.05-.73,15.36,15.36,0,0,1-5.18-2.3,11.42,11.42,0,0,1-3.57-4A11.56,11.56,0,0,1,0,254.83H8A6.34,6.34,0,0,0,8.72,257.91Z"/><path class="cls-2" d="M97.87,240.36a8.35,8.35,0,0,0-1.85-2A8.76,8.76,0,0,0,93.51,237a9,9,0,0,0-2.93-.48,10.05,10.05,0,0,0-4.76,1,8.79,8.79,0,0,0-3.17,2.78,11.88,11.88,0,0,0-1.77,4,19,19,0,0,0-.56,4.6,17.62,17.62,0,0,0,.56,4.42,11.78,11.78,0,0,0,1.77,3.87A9,9,0,0,0,85.82,260a10.06,10.06,0,0,0,4.76,1,7.87,7.87,0,0,0,5.94-2.22,10,10,0,0,0,2.62-5.86h8a17.71,17.71,0,0,1-1.64,6.12,14.66,14.66,0,0,1-3.49,4.64A14.83,14.83,0,0,1,97,266.6a19.2,19.2,0,0,1-6.39,1,20.15,20.15,0,0,1-7.8-1.44,16.78,16.78,0,0,1-5.84-4,17.68,17.68,0,0,1-3.65-5.94A21,21,0,0,1,72,248.92a21.7,21.7,0,0,1,1.26-7.5,18,18,0,0,1,3.65-6,16.69,16.69,0,0,1,5.84-4,21.07,21.07,0,0,1,13.69-.61,16.38,16.38,0,0,1,5,2.51,13.55,13.55,0,0,1,3.61,4.06,13.86,13.86,0,0,1,1.8,5.56h-8A6.28,6.28,0,0,0,97.87,240.36Z"/><path class="cls-2" d="M158.11,230.73v13.85h15.27V230.73h8.3V266.8h-8.3V251.24H158.11V266.8h-8.3V230.73Z"/><path class="cls-2" d="M225.59,241.42a17.86,17.86,0,0,1,3.65-6,16.6,16.6,0,0,1,5.84-4,21.46,21.46,0,0,1,15.61,0,16.8,16.8,0,0,1,5.82,4,17.84,17.84,0,0,1,3.64,6,21.47,21.47,0,0,1,1.27,7.5,20.79,20.79,0,0,1-1.27,7.35,17.49,17.49,0,0,1-3.64,5.94,16.88,16.88,0,0,1-5.82,4,21.87,21.87,0,0,1-15.61,0,16.68,16.68,0,0,1-5.84-4,17.52,17.52,0,0,1-3.65-5.94,21,21,0,0,1-1.27-7.35A21.71,21.71,0,0,1,225.59,241.42Zm7.58,11.92a11.78,11.78,0,0,0,1.77,3.87,9,9,0,0,0,3.18,2.75,11.49,11.49,0,0,0,9.51,0,9,9,0,0,0,3.17-2.75,11.78,11.78,0,0,0,1.77-3.87,17.61,17.61,0,0,0,.55-4.42,19,19,0,0,0-.55-4.6,11.88,11.88,0,0,0-1.77-4,8.79,8.79,0,0,0-3.17-2.78,11.39,11.39,0,0,0-9.51,0,8.82,8.82,0,0,0-3.18,2.78,11.88,11.88,0,0,0-1.77,4,19,19,0,0,0-.55,4.6A17.61,17.61,0,0,0,233.17,253.34Z"/><path class="cls-2" d="M303.69,241.42a18,18,0,0,1,3.65-6,16.6,16.6,0,0,1,5.84-4,21.46,21.46,0,0,1,15.61,0,16.8,16.8,0,0,1,5.82,4,17.84,17.84,0,0,1,3.64,6,21.47,21.47,0,0,1,1.27,7.5,20.79,20.79,0,0,1-1.27,7.35,17.49,17.49,0,0,1-3.64,5.94,16.88,16.88,0,0,1-5.82,4,21.87,21.87,0,0,1-15.61,0,16.68,16.68,0,0,1-5.84-4,17.68,17.68,0,0,1-3.65-5.94,21,21,0,0,1-1.26-7.35A21.7,21.7,0,0,1,303.69,241.42Zm7.59,11.92a11.78,11.78,0,0,0,1.77,3.87,8.92,8.92,0,0,0,3.17,2.75,11.49,11.49,0,0,0,9.51,0,9,9,0,0,0,3.17-2.75,11.78,11.78,0,0,0,1.77-3.87,17.62,17.62,0,0,0,.56-4.42,19,19,0,0,0-.56-4.6,11.88,11.88,0,0,0-1.77-4,8.79,8.79,0,0,0-3.17-2.78,11.39,11.39,0,0,0-9.51,0,8.71,8.71,0,0,0-3.17,2.78,11.88,11.88,0,0,0-1.77,4,19,19,0,0,0-.56,4.6A17.62,17.62,0,0,0,311.28,253.34Z"/><path class="cls-2" d="M390.46,230.73v29.41h18.39v6.66H382.17V230.73Z"/><path class="cls-3" d="M18.22,130.67v83.87H0V130.67Z"/><path class="cls-3" d="M27.74,146.18V130.67H95.63v15.51H70.79v68.36H52.57V146.18Z"/><path class="cls-4" d="M123.36,130.67v32.19H156.9V130.67h18.22v83.87H156.9V178.36H123.36v36.18H105.14V130.67Z"/><path class="cls-4" d="M182.2,130.67h20.43L222,163.8l19.26-33.13h20.31l-30.75,51.68v32.19H212.61V181.89Z"/><path class="cls-4" d="M305.91,130.67A34.23,34.23,0,0,1,319.14,133a24.81,24.81,0,0,1,8.88,6,23.33,23.33,0,0,1,5,8.58,32.35,32.35,0,0,1,0,19.91,23.21,23.21,0,0,1-5,8.63,24.68,24.68,0,0,1-8.88,6.05,34.23,34.23,0,0,1-13.23,2.29H286.77v30.07H268.55V130.67Zm-5,39.47a38.2,38.2,0,0,0,6-.47,13.88,13.88,0,0,0,5.1-1.82A9.84,9.84,0,0,0,315.6,164a16.24,16.24,0,0,0,0-12.92,9.84,9.84,0,0,0-3.54-3.82,14.06,14.06,0,0,0-5.1-1.82,38.2,38.2,0,0,0-6-.47H286.77v25.14Z"/><path class="cls-4" d="M407.93,130.67v15.51H364.17v18h40.16v14.33H364.17V199h44.68v15.51H346V130.67Z"/><path class="cls-4" d="M136,0l86.07,147.83L308,0Zm86.07,131.08C221,129,150.2,7.66,150.2,7.66H293.74Z"/><polygon class="cls-5" points="171.91 18.36 187.95 45.87 256.02 45.87 272.03 18.36 171.91 18.36"/><polygon class="cls-4" points="187.95 45.87 256.02 45.87 241.25 71.27 202.74 71.27 187.95 45.87"/><polygon class="cls-3" points="202.74 71.27 241.25 71.27 221.97 104.42 202.74 71.27"/><g class="cls-6"><path class="cls-2" d="M220,63.51a13.78,13.78,0,0,1-12-7,14,14,0,0,1-1.18-11,12.79,12.79,0,0,1,6.5-7.78l1.33,2.65a9.81,9.81,0,0,0-5,6,11.1,11.1,0,0,0,.93,8.64,10.79,10.79,0,0,0,9.16,5.51,9.74,9.74,0,0,0,3.34-.45c6.74-2.13,9.41-9.41,6.27-15.67a9.61,9.61,0,0,0-1.55-2.22,1.55,1.55,0,0,1-.09-2h0a1.43,1.43,0,0,1,2.13-.12A12.23,12.23,0,0,1,232,43.11a14,14,0,0,1-5.29,18.64A13.74,13.74,0,0,1,220,63.51Z"/><path class="cls-2" d="M223.34,74.73h0a1.45,1.45,0,0,1,1.22-1.57,21.86,21.86,0,0,0,13.87-8.1,24.42,24.42,0,0,0,5.12-18.44,23.77,23.77,0,0,0-26.71-20.4C204,27.94,195.26,39.45,196.44,53a21.14,21.14,0,0,0,2.66,8.59l-2.58,1.46a24.19,24.19,0,0,1-3-9.79c-1.3-14.91,8.78-28.08,22.95-30a26.73,26.73,0,0,1,30,22.94,27.39,27.39,0,0,1-5.74,20.68,24.79,24.79,0,0,1-15.67,9.17A1.5,1.5,0,0,1,223.34,74.73Z"/><path class="cls-2" d="M223.34,74.75h0a1.48,1.48,0,0,1,1.24-1.59,21.86,21.86,0,0,0,13.85-8.1,24.42,24.42,0,0,0,5.12-18.44,23.77,23.77,0,0,0-26.71-20.4C204,27.94,195.26,39.45,196.44,53a21.14,21.14,0,0,0,2.66,8.59l-2.58,1.46a24.19,24.19,0,0,1-3-9.79c-1.3-14.91,8.78-28.08,22.95-30a26.73,26.73,0,0,1,30,22.94,27.39,27.39,0,0,1-5.74,20.68,24.81,24.81,0,0,1-15.69,9.18A1.49,1.49,0,0,1,223.34,74.75Z"/><path class="cls-2" d="M220.4,90.33c-14.79,0-28.74-7.55-35.93-20.89a40.87,40.87,0,0,1,16.72-55.25,42.11,42.11,0,0,1,32.85-3,37.51,37.51,0,0,1,22.53,19.46l-2.67,1.28A34.6,34.6,0,0,0,233.12,14,39.11,39.11,0,0,0,202.6,16.8,37.9,37.9,0,0,0,187.07,68c9.74,18.06,31.83,24.59,51.39,15.18a33.86,33.86,0,0,0,10.43-7.75A1.5,1.5,0,0,1,251,75.3h0a1.48,1.48,0,0,1,.17,2.11,36.85,36.85,0,0,1-11.38,8.46A44.46,44.46,0,0,1,220.4,90.33Z"/><path class="cls-2" d="M200.7,73.19a7,7,0,1,1,1.7-.21A7.13,7.13,0,0,1,200.7,73.19Zm0-11.13a4.08,4.08,0,1,0,4,3.1A4.11,4.11,0,0,0,200.7,62.06Z"/><path class="cls-2" d="M218.25,44.59a7,7,0,0,1-6-10.67A7,7,0,1,1,220,44.38,6.65,6.65,0,0,1,218.25,44.59Zm0-11.12a4.19,4.19,0,0,0-1,.12,4.08,4.08,0,0,0-3,4.95,4.08,4.08,0,1,0,6.06-4.49A4.13,4.13,0,0,0,218.25,33.47Z"/><path class="cls-2" d="M257.27,43.42a7,7,0,0,1-6-10.68A7,7,0,1,1,259,43.21,7.13,7.13,0,0,1,257.27,43.42Zm0-11.13a4.27,4.27,0,0,0-1,.12,4.08,4.08,0,1,0,5,3,4.11,4.11,0,0,0-4-3.1Z"/></g></g></g></svg>